<svg xmlns="http://www.w3.org/2000/svg" data-name="Layer 1" viewBox="0 0 787 572"><circle cx="458" cy="74" r="27" fill="#f2f2f2"/><path d="M665 497c40-30 59-81 47-129l-1-4c-8-29-27-56-55-65-24-8-50-2-75-5-49-6-87-46-113-87-27-41-47-87-83-122-58-56-153-68-225-31A221 221 0 0 0 43 253c2 81 50 158 120 199 26 15 56 26 85 22 26-3 49-17 74-21 41-6 80 12 115 33s68 46 108 56c38 9 85-18 120-45Z" fill="#f2f2f2"/><path d="m608 55-2-1a380 380 0 0 0-81-39l-6 90h-42V2l-7-2v105h-50A102 102 0 0 1 318 3l-8 1v101h-40l-6-86a381 381 0 0 0-82 43l-1 1-7 5v344h118l-2-29-11-159h231l-11 159-2 29h117V59l-6-4ZM310 198h-33l-6-85h39Zm160 0h-56v-2a6 6 0 0 0-7-6h-24a6 6 0 0 0-6 6v2h-59v-85h152Zm7 0v-85h41l-6 85ZM0 434a289 289 0 0 0 28 29l731 1a289 289 0 0 0 28-29Z" fill="#3f3d56"/><path d="M495 342v85a4 4 0 0 0 5 4h127a4 4 0 0 0 4-4v-85a4 4 0 0 0-4-5H500a4 4 0 0 0-5 5Z" fill="#3f3d56"/><path d="M498 343v83a2 2 0 0 0 3 2h124a2 2 0 0 0 3-2v-83a2 2 0 0 0-3-3H501a2 2 0 0 0-3 3Z" fill="#8763ff"/><path d="M493 444a2 2 0 0 0 2 1h136a3 3 0 0 0 2-3l-2-10a3 3 0 0 0-2-2H497a2 2 0 0 0-1 0 3 3 0 0 0-2 2l-2 10a3 3 0 0 0 1 2Z" fill="#2f2e41"/><rect x="830" y="596" width="4" height="3" rx="0" transform="rotate(-180 729 515)" fill="#3f3d56"/><rect x="822" y="596" width="4" height="3" rx="0" transform="rotate(-180 720 515)" fill="#3f3d56"/><rect x="813" y="596" width="4" height="3" rx="0" transform="rotate(-180 712 515)" fill="#3f3d56"/><rect x="805" y="596" width="4" height="3" rx="0" transform="rotate(-180 704 515)" fill="#3f3d56"/><rect x="797" y="596" width="4" height="3" rx="0" transform="rotate(-180 695 515)" fill="#3f3d56"/><rect x="788" y="596" width="4" height="3" rx="0" transform="rotate(-180 687 515)" fill="#3f3d56"/><rect x="780" y="596" width="4" height="3" rx="0" transform="rotate(-180 679 515)" fill="#3f3d56"/><rect x="771" y="596" width="4" height="3" rx="0" transform="rotate(-180 670 515)" fill="#3f3d56"/><rect x="763" y="596" width="4" height="3" rx="0" transform="rotate(-180 662 515)" fill="#3f3d56"/><rect x="755" y="596" width="4" height="3" rx="0" transform="rotate(-180 653 515)" fill="#3f3d56"/><rect x="746" y="596" width="4" height="3" rx="0" transform="rotate(-180 645 515)" fill="#3f3d56"/><rect x="738" y="596" width="4" height="3" rx="0" transform="rotate(-180 637 515)" fill="#3f3d56"/><rect x="730" y="596" width="4" height="3" rx="0" transform="rotate(-180 628 515)" fill="#3f3d56"/><rect x="721" y="596" width="4" height="3" rx="0" transform="rotate(-180 620 515)" fill="#3f3d56"/><rect x="713" y="596" width="4" height="3" rx="0" transform="rotate(-180 612 515)" fill="#3f3d56"/><rect x="704" y="596" width="4" height="3" rx="0" transform="rotate(-180 603 515)" fill="#3f3d56"/><rect x="830" y="600" width="4" height="3" rx="0" transform="rotate(-180 729 519)" fill="#3f3d56"/><rect x="822" y="600" width="4" height="3" rx="0" transform="rotate(-180 721 519)" fill="#3f3d56"/><rect x="813" y="600" width="4" height="3" rx="0" transform="rotate(-180 712 519)" fill="#3f3d56"/><rect x="805" y="600" width="4" height="3" rx="0" transform="rotate(-180 704 519)" fill="#3f3d56"/><rect x="797" y="600" width="4" height="3" rx="0" transform="rotate(-180 695 519)" fill="#3f3d56"/><rect x="788" y="600" width="4" height="3" rx="0" transform="rotate(-180 687 519)" fill="#3f3d56"/><rect x="780" y="600" width="4" height="3" rx="0" transform="rotate(-180 679 519)" fill="#3f3d56"/><rect x="771" y="600" width="4" height="3" rx="0" transform="rotate(-180 670 519)" fill="#3f3d56"/><rect x="763" y="600" width="4" height="3" rx="0" transform="rotate(-180 662 519)" fill="#3f3d56"/><rect x="755" y="600" width="4" height="3" rx="0" transform="rotate(-180 654 519)" fill="#3f3d56"/><rect x="746" y="600" width="4" height="3" rx="0" transform="rotate(-180 645 519)" fill="#3f3d56"/><rect x="738" y="600" width="4" height="3" rx="0" transform="rotate(-180 637 519)" fill="#3f3d56"/><rect x="730" y="600" width="4" height="3" rx="0" transform="rotate(-180 628 519)" fill="#3f3d56"/><rect x="721" y="600" width="4" height="3" rx="0" transform="rotate(-180 620 519)" fill="#3f3d56"/><rect x="713" y="600" width="4" height="3" rx="0" transform="rotate(-180 612 519)" fill="#3f3d56"/><rect x="704" y="600" width="4" height="3" rx="0" transform="rotate(-180 603 519)" fill="#3f3d56"/><rect x="761" y="605" width="34" height="3" rx="0" transform="rotate(-180 674 524)" fill="#3f3d56"/><rect x="516" y="359" width="6" height="3" rx="2" fill="#fff"/><rect x="548" y="359" width="6" height="3" rx="2" fill="#fff"/><rect x="557" y="359" width="6" height="3" rx="2" fill="#fff"/><rect x="524" y="358" width="21" height="3" rx="2" fill="#fff"/><rect x="568" y="358" width="21" height="3" rx="2" fill="#fff"/><rect x="524" y="366" width="6" height="3" rx="2" fill="#fff"/><rect x="557" y="366" width="6" height="3" rx="2" fill="#fff"/><rect x="566" y="366" width="6" height="3" rx="2" fill="#fff"/><rect x="533" y="366" width="21" height="3" rx="2" fill="#fff"/><rect x="577" y="366" width="21" height="3" rx="2" fill="#fff"/><rect x="533" y="373" width="6" height="3" rx="2" fill="#fff"/><rect x="565" y="373" width="6" height="3" rx="2" fill="#fff"/><rect x="575" y="373" width="6" height="3" rx="2" fill="#fff"/><rect x="542" y="373" width="21" height="3" rx="2" fill="#fff"/><rect x="585" y="373" width="21" height="3" rx="2" fill="#fff"/><rect x="542" y="380" width="6" height="3" rx="2" fill="#fff"/><rect x="574" y="380" width="6" height="3" rx="2" fill="#fff"/><rect x="583" y="380" width="6" height="3" rx="2" fill="#fff"/><rect x="550" y="380" width="21" height="3" rx="2" fill="#fff"/><rect x="548" y="408" width="6" height="3" rx="2" fill="#fff"/><rect x="557" y="408" width="6" height="3" rx="2" fill="#fff"/><rect x="568" y="408" width="21" height="3" rx="2" fill="#fff"/><rect x="516" y="408" width="6" height="3" rx="2" fill="#fff"/><rect x="524" y="408" width="21" height="3" rx="2" fill="#fff"/><rect x="524" y="401" width="6" height="3" rx="2" fill="#fff"/><rect x="557" y="401" width="6" height="3" rx="2" fill="#fff"/><rect x="566" y="401" width="6" height="3" rx="2" fill="#fff"/><rect x="533" y="401" width="21" height="3" rx="2" fill="#fff"/><rect x="533" y="394" width="6" height="3" rx="2" fill="#fff"/><rect x="565" y="394" width="6" height="3" rx="2" fill="#fff"/><rect x="575" y="394" width="6" height="3" rx="2" fill="#fff"/><rect x="542" y="394" width="21" height="3" rx="2" fill="#fff"/><rect x="542" y="387" width="6" height="3" rx="2" fill="#fff"/><rect x="574" y="387" width="6" height="3" rx="2" fill="#fff"/><rect x="583" y="387" width="6" height="3" rx="2" fill="#fff"/><rect x="550" y="387" width="21" height="3" rx="2" fill="#fff"/><path d="m505 490-13-21 41-33 18-19a19 19 0 0 1 32 7 19 19 0 0 1-11 24l-28 10Z" fill="#ffb6b6"/><path d="M192 337v103h72V337a3 3 0 0 0-3-3 3 3 0 0 0-1 0h-65a3 3 0 0 0-3 3Zm28 36a8 8 0 0 1 15 0v12a8 8 0 0 1-15 0Z" fill="#2f2e41"/><path d="M191 437v10a2 2 0 0 0 2 2h69a2 2 0 0 0 2-2v-10ZM79 183v187a9 9 0 0 0 9 9h277a9 9 0 0 0 9-9V183a9 9 0 0 0-9-9H88a9 9 0 0 0-9 9Z" fill="#3f3d56"/><path d="M85 185v183a5 5 0 0 0 5 5h273a5 5 0 0 0 5-5V185a5 5 0 0 0-5-5H90a5 5 0 0 0-5 5Z" fill="#fff"/><path d="M136 448a3 3 0 0 0 2 1h162a3 3 0 0 0 3-4l-2-12a3 3 0 0 0-2-2 3 3 0 0 0-1 0H141a3 3 0 0 0-1 0 3 3 0 0 0-2 2l-3 12a3 3 0 0 0 1 3Z" fill="#2f2e41"/><path d="M354 206H99a1 1 0 0 1 0-2h255a1 1 0 0 1 0 2Z" fill="#3f3d56"/><circle cx="116" cy="192" fill="#3f3d56" r="6"/><circle cx="137" cy="192" fill="#3f3d56" r="6"/><circle cx="157" cy="192" fill="#3f3d56" r="6"/><path d="M342 188h-15a1 1 0 0 0 0 2h15a1 1 0 0 0 0-2ZM342 192h-15a1 1 0 0 0 0 2h15a1 1 0 0 0 0-2ZM342 196h-15a1 1 0 0 0 0 2h15a1 1 0 0 0 0-2Z" fill="#3f3d56"/><path d="M694 441a6 6 0 0 0 6 4h26a6 6 0 0 0 6-5l4-40a10 10 0 0 0 4 1 10 10 0 1 0 0-19 8 8 0 0 0-2 0 7 7 0 0 0-5-2l-41 1a6 6 0 0 0-1 0 6 6 0 0 0-4 8Zm43-44 2-9a7 7 0 0 0 0-4h1a7 7 0 0 1 0 14 7 7 0 0 1-3-1Z" fill="#2f2e41"/><path d="M691 381c1 5 11 8 23 8 11-1 19-5 21-9a6 6 0 0 0-2 0l-41 1a6 6 0 0 0-1 0Z" fill="#3f3d56"/><path d="m716 419 6-4v-1l-6-4-1 1 6 4-5 3v1ZM707 419l-5-3 5-4-1-1-6 4v1l6 3h1ZM715 422h1l-9-14a1 1 0 0 0 0 1l8 13Z" fill="#8763ff"/><rect x="209" y="261" width="51" height="11" rx="3" fill="#8763ff"/><rect x="184" y="283" width="102" height="11" rx="3" fill="#e6e6e6"/><rect x="184" y="304" width="102" height="11" rx="3" fill="#e6e6e6"/><path d="M291 377v1l6 19 8 23 14 43v7l1 54-3 7 4 12s-2-18-10-8l-14 18 19 7 5 1a267 267 0 0 0 68 11h16a267 267 0 0 0 56-7l-1-26c0-5-5-10-6-15 0-4 5-7 5-11-2-23-4-14-5-30l-1-4-1-17 6-39 9-61v-1h-1l-51-26-3-7a11 11 0 0 0-10-7h-33a11 11 0 0 0-9 5l-9 12Z" fill="#3f3d56"/><path d="m327 454-8 16-5 11-9 47-4 4-4-16-40 8-1-7v-1l2-2c-1-27 0-74 12-103a60 60 0 0 1 7-13l1-1c5-7 8-14 13-19a1 1 0 0 0 0-1l32-17 2 39 1 28ZM444 458l9 21 4 7 8 46 5 5 4-17h2l32-7 9 30a18 18 0 0 0-3-22l-1-2c1-32-1-92-19-116-6-8-9-16-14-21l-13-20v-1h-1Z" fill="#3f3d56"/><circle data-name="Ellipse 5" cx="386" cy="267" r="45" fill="#ffb6b6"/><path d="M447 236a4 4 0 0 0-3-1l1-2a4 4 0 0 0-4-5l-3 1v-2a4 4 0 0 0-4-4 4 4 0 0 1-4 0 4 4 0 0 1-1-2l-1-5c-5-7-12-12-22-14h-26c-4 1-8 1-11 3s-5 5-4 8c-9-2-18 3-22 10-6 7-7 17-7 25 0 18 4 32 11 43l2 3 2 3c-1 3 8 10 14 12 11 4 27 4 38 2v-2c4-1 7-2 7-4l4-3c5-4 6-7 6-11 1-4 0-8-1-12 19 3-7-20 10-24a5 5 0 0 1 1 0l1-1a26 26 0 0 0 7-3c5-3 7-6 9-11a3 3 0 0 0 0-4ZM544 461v9a868 868 0 0 1-2 45c-2 25-4 4-6 13l-1 1a28 28 0 0 1-2 6l-4 3a281 281 0 0 1-18 9h-1a271 271 0 0 1-35 14 241 241 0 0 1-14 4 267 267 0 0 1-56 7h-16a267 267 0 0 1-68-11l-5-1-19-7-15-7-3-1-11-6c-3-7-8-8-10-15a26 26 0 0 1-2-5v-1a24 24 0 0 1 0-1c-4-34-4-72-5-104v-5a100 100 0 0 0 0-3v-1h1a2 2 0 0 1 0-1 10 10 0 0 1 1-1h1a19 19 0 0 1 3-1l1-1h1l4-1a16 16 0 0 1 2 0l10-2h4a36 36 0 0 1 4 0h14l5 1h12l4 1h7l3 1h7l3 1a201 201 0 0 1 7 1h1a756 756 0 0 1 29 4l17 3 5 1h2a425 425 0 0 1 7 1l4 1 27 6 4 1 9 2a157 157 0 0 1 8 2l4 1 10 3 6 1a478 478 0 0 1 22 7l4 2 3 1 4 1 1 1h1l1 1a34 34 0 0 1 4 1 27 27 0 0 1 4 2h1v1h2l1 1a142 142 0 0 1 4 2h1v1l2 1 2 1 1 1 2 1 1 1 1 1a6 6 0 0 1 1 1l1 1v1h1v1a7 7 0 0 1 1 1 5 5 0 0 1 0 1Z" fill="#2f2e41"/><path d="M544 461v9a1317 1317 0 0 1-2 45c-2 25-4 4-6 13l-23-14-4-2a1260 1260 0 0 0-239-101c-10-1-16-1-19 2v-9a3 3 0 0 1 1 0 2 2 0 0 1 0-1 10 10 0 0 1 1-1h1a19 19 0 0 1 3-1l1-1h1a43 43 0 0 1 6-1l10-2h4a36 36 0 0 1 4 0 256 256 0 0 1 14 0l5 1h8a132 132 0 0 0 4 0l4 1h7l3 1 18 2 11 1 18 3 17 3 5 1 5 1h4l4 1 27 6 4 1 9 2 2 1 6 1 4 1 10 3 6 1a706 706 0 0 1 11 4l6 2 5 1 4 2 3 1 4 1 1 1a87 87 0 0 1 10 4h1v1h1a115 115 0 0 1 7 3v1l2 1a68 68 0 0 1 5 3 50 50 0 0 1 2 2 6 6 0 0 1 1 1 39 39 0 0 1 1 1v1h1v1a7 7 0 0 1 1 1 6 6 0 0 1 0 1Z" opacity="0"/></svg>